<?xml version="1.0" encoding="UTF-8" standalone="no"?>
<!-- Created with Inkscape (http://www.inkscape.org/) -->

<svg
   xmlns:dc="http://purl.org/dc/elements/1.1/"
   xmlns:cc="http://creativecommons.org/ns#"
   xmlns:rdf="http://www.w3.org/1999/02/22-rdf-syntax-ns#"
   xmlns:svg="http://www.w3.org/2000/svg"
   xmlns="http://www.w3.org/2000/svg"
   xmlns:sodipodi="http://sodipodi.sourceforge.net/DTD/sodipodi-0.dtd"
   xmlns:inkscape="http://www.inkscape.org/namespaces/inkscape"
   width="134"
   height="190"
   viewBox="0 0 35.454166 50.270834"
   version="1.1"
   id="svg2168"
   inkscape:version="0.92.2 (5c3e80d, 2017-08-06)"
   sodipodi:docname="fire_pin.svg">
  <defs
     id="defs2162" />
  <sodipodi:namedview
     id="base"
     pagecolor="#ffffff"
     bordercolor="#666666"
     borderopacity="1.0"
     inkscape:pageopacity="0.0"
     inkscape:pageshadow="2"
     inkscape:zoom="2.8"
     inkscape:cx="-88.927014"
     inkscape:cy="107.03042"
     inkscape:document-units="mm"
     inkscape:current-layer="g2816"
     showgrid="false"
     units="px"
     inkscape:snap-bbox="true"
     inkscape:bbox-paths="true"
     inkscape:bbox-nodes="true"
     inkscape:snap-bbox-edge-midpoints="true"
     inkscape:snap-bbox-midpoints="true"
     inkscape:object-paths="true"
     inkscape:snap-intersection-paths="true"
     inkscape:snap-smooth-nodes="true"
     inkscape:snap-midpoints="true"
     inkscape:snap-object-midpoints="true"
     inkscape:snap-center="true"
     inkscape:snap-text-baseline="true"
     inkscape:snap-page="true"
     borderlayer="true"
     inkscape:showpageshadow="false"
     inkscape:window-width="1920"
     inkscape:window-height="1000"
     inkscape:window-x="-11"
     inkscape:window-y="-11"
     inkscape:window-maximized="1"
     showguides="false" />
  <metadata
     id="metadata2165">
    <rdf:RDF>
      <cc:Work
         rdf:about="">
        <dc:format>image/svg+xml</dc:format>
        <dc:type
           rdf:resource="http://purl.org/dc/dcmitype/StillImage" />
        <dc:title />
      </cc:Work>
    </rdf:RDF>
  </metadata>
  <g
     inkscape:label="Layer 1"
     inkscape:groupmode="layer"
     id="layer1"
     transform="translate(0,-246.72915)">
    <g
       id="g2816"
       transform="matrix(0.09814231,0,0,0.09814231,-30.665536,260.96668)"
       inkscape:export-xdpi="94.404282"
       inkscape:export-ydpi="94.404282">
      <ellipse
         ry="101.66003"
         rx="101.65917"
         cy="118.01736"
         cx="448.31424"
         id="path952"
         style="opacity:1;fill:#ff8f00;fill-opacity:1;stroke:none;stroke-width:5.13755083;stroke-linecap:round;stroke-linejoin:round;stroke-miterlimit:4;stroke-dasharray:none;stroke-opacity:1;paint-order:stroke fill markers" />
      <g
         id="g2790">
        <g
           id="g2765">
          <g
             transform="matrix(0.33939112,0,0,0.33939112,361.42706,25.738344)"
             id="g887">
            <path
               inkscape:connector-curvature="0"
               style="fill:#303c42"
               d="m 447.28,304.8 -0.365,-5.01 C 441.05,223.436 405.498,175.571 374.134,133.353 345.092,94.259 320.009,60.499 320.009,10.686 c 0,-4 -2.24,-7.656 -5.792,-9.49 -3.563,-1.844 -7.844,-1.542 -11.083,0.812 -47.104,33.708 -86.406,90.521 -100.135,144.729 -9.531,37.74 -10.792,80.167 -10.969,108.188 -43.5,-9.292 -53.354,-74.365 -53.458,-75.073 -0.49,-3.375 -2.552,-6.313 -5.552,-7.917 -3.031,-1.583 -6.594,-1.698 -9.667,-0.177 -2.281,1.104 -55.99,28.396 -59.115,137.375 -0.219,3.625 -0.229,7.25 -0.229,10.885 0,105.865 86.135,192 192,192 105.865,0 192,-86.135 192,-192 0,-5.312 -0.364,-10.27 -0.729,-15.218 z"
               id="path815" />
            <path
               inkscape:connector-curvature="0"
               style="fill:#ff8f00"
               d="m 192.009,422.508 c 0,-1.281 -0.01,-2.573 0.083,-4.156 0.427,-15.854 3.438,-26.677 6.74,-33.875 6.188,13.292 17.26,25.51 35.219,25.51 5.896,0 10.667,-4.771 10.667,-10.667 0,-15.188 0.313,-32.708 4.094,-48.521 3.365,-14.031 11.406,-28.938 21.594,-40.896 4.531,15.521 13.365,28.083 21.99,40.344 12.344,17.542 25.104,35.677 27.344,66.604 0.135,1.833 0.271,3.677 0.271,5.656 0,37.594 -28.708,68.177 -64,68.177 -35.292,0 -64.002,-30.582 -64.002,-68.176 z"
               id="path817" />
            <path
               inkscape:connector-curvature="0"
               style="fill:#ffca28"
               d="m 323.421,477.081 c 11.072,-15.099 17.922,-33.763 17.922,-54.24 0,-2.51 -0.156,-4.844 -0.469,-9.208 -2.531,-34.823 -17.667,-56.344 -31.031,-75.333 -11.385,-16.167 -21.208,-30.135 -21.208,-49.948 0,-4.052 -2.292,-7.75 -5.917,-9.552 -3.604,-1.813 -7.958,-1.406 -11.177,1.042 -20.458,15.458 -37.521,41.479 -43.479,66.323 -3.042,12.74 -4.104,26.521 -4.479,37.854 -7.396,-7.958 -9.688,-22.708 -9.708,-22.906 -0.479,-3.427 -2.583,-6.417 -5.656,-8.01 -3.052,-1.583 -6.708,-1.625 -9.781,-0.042 -2.688,1.375 -26.302,14.917 -27.656,64.729 -0.094,1.688 -0.104,3.375 -0.104,5.052 0,20.477 6.85,39.141 17.922,54.24 C 127.936,450.887 85.345,390.519 85.345,320.353 c 0,-3.198 -0.01,-6.385 0.208,-9.938 1.833,-63.937 22.292,-95.646 35.646,-109.635 9.312,33.333 33.708,76.906 81.479,76.906 5.896,0 10.667,-4.771 10.667,-10.667 0,-35.698 0.802,-76.948 10.344,-114.719 10.833,-42.792 40.51,-89 76.333,-120.281 5.948,45.688 30.833,79.188 56.99,114.385 31.094,41.854 63.24,85.135 68.625,155.219 l 0.365,5.104 c 0.333,4.438 0.677,8.865 0.677,13.625 -0.003,70.167 -42.594,130.534 -103.258,156.729 z"
               id="path819" />
            <path
               inkscape:connector-curvature="0"
               style="opacity:0.3;fill:#ffffff;enable-background:new"
               d="m 121.197,253.756 c 9.312,26.941 33.708,62.16 81.479,62.16 5.896,0 10.667,-3.855 10.667,-8.621 0,-28.854 0.802,-62.195 10.344,-92.724 10.833,-34.587 40.51,-71.935 76.333,-97.219 5.948,36.927 30.833,64.004 56.99,92.453 31.025,33.754 63.074,68.674 68.568,125.098 0.414,-4.84 1.099,-9.605 1.099,-14.551 0,-4.76 -0.344,-9.188 -0.677,-13.625 l -0.365,-5.104 C 420.25,231.54 388.104,188.258 357.01,146.404 330.854,111.206 305.968,77.706 300.02,32.019 264.197,63.3 234.52,109.509 223.687,152.3 c -9.542,37.771 -10.344,79.021 -10.344,114.719 0,5.896 -4.771,10.667 -10.667,10.667 -47.771,0 -72.167,-43.573 -81.479,-76.906 -13.354,13.99 -33.813,45.698 -35.646,109.635 -0.219,3.552 -0.208,6.74 -0.208,9.938 0,4.366 0.646,8.563 0.97,12.846 3.821,-45.386 22.372,-68.85 34.884,-79.443 z"
               id="path821" />
            <path
               inkscape:connector-curvature="0"
               style="fill:url(#SVGID_1_)"
               d="m 447.28,304.8 -0.365,-5.01 C 441.05,223.436 405.498,175.571 374.134,133.353 345.092,94.259 320.009,60.499 320.009,10.686 c 0,-4 -2.24,-7.656 -5.792,-9.49 -3.563,-1.844 -7.844,-1.542 -11.083,0.812 -47.104,33.708 -86.406,90.521 -100.135,144.729 -9.531,37.74 -10.792,80.167 -10.969,108.188 -43.5,-9.292 -53.354,-74.365 -53.458,-75.073 -0.49,-3.375 -2.552,-6.313 -5.552,-7.917 -3.031,-1.583 -6.594,-1.698 -9.667,-0.177 -2.281,1.104 -55.99,28.396 -59.115,137.375 -0.219,3.625 -0.229,7.25 -0.229,10.885 0,105.865 86.135,192 192,192 105.865,0 192,-86.135 192,-192 0,-5.312 -0.364,-10.27 -0.729,-15.218 z"
               id="path828" />
            <g
               id="g830" />
            <g
               id="g832" />
            <g
               id="g834" />
            <g
               id="g836" />
            <g
               id="g838" />
            <g
               id="g840" />
            <g
               id="g842" />
            <g
               id="g844" />
            <g
               id="g846" />
            <g
               id="g848" />
            <g
               id="g850" />
            <g
               id="g852" />
            <g
               id="g854" />
            <g
               id="g856" />
            <g
               id="g858" />
          </g>
          <path
             style="fill:#ff8f00;fill-opacity:1;stroke-width:0.74886531"
             id="path889-5"
             d="m 448.31477,-16.992911 c -74.32638,0 -134.79576,60.469373 -134.79576,134.795761 0,25.11245 6.95621,49.61982 20.12127,70.8816 L 440.6419,361.11593 c 2.04964,3.30325 5.66067,5.31022 9.54429,5.31022 0.03,0 0.0592,0 0.0891,0 3.91731,-0.0307 7.53583,-2.09984 9.54803,-5.46074 l 104.27426,-174.1022 c 12.43865,-20.81246 19.01295,-44.69303 19.01295,-69.06036 10e-6,-74.326388 -60.46938,-134.795761 -134.79576,-134.795761 z M 544.81805,175.32919 450.01619,333.61535 352.73484,176.84789 C 341.7767,159.1507 335.8352,138.73364 335.8352,117.80285 c 0,-61.938657 50.54092,-112.4795793 112.47957,-112.4795793 61.93865,0 112.40469,50.5409223 112.40469,112.4795793 0,20.30997 -5.54984,40.20508 -15.90141,57.52634 z"
             inkscape:connector-curvature="0" />
        </g>
      </g>
    </g>
  </g>
</svg>
