<?xml version="1.0" encoding="UTF-8" standalone="no"?>
<!-- Created with Inkscape (http://www.inkscape.org/) -->

<svg
   xmlns:dc="http://purl.org/dc/elements/1.1/"
   xmlns:cc="http://creativecommons.org/ns#"
   xmlns:rdf="http://www.w3.org/1999/02/22-rdf-syntax-ns#"
   xmlns:svg="http://www.w3.org/2000/svg"
   xmlns="http://www.w3.org/2000/svg"
   xmlns:sodipodi="http://sodipodi.sourceforge.net/DTD/sodipodi-0.dtd"
   xmlns:inkscape="http://www.inkscape.org/namespaces/inkscape"
   width="133"
   height="189"
   viewBox="0 0 35.189583 50.006251"
   version="1.1"
   id="svg6864"
   inkscape:version="0.92.2 (5c3e80d, 2017-08-06)"
   sodipodi:docname="police_pin.svg">
  <defs
     id="defs6858" />
  <sodipodi:namedview
     id="base"
     pagecolor="#ffffff"
     bordercolor="#666666"
     borderopacity="1.0"
     inkscape:pageopacity="0.0"
     inkscape:pageshadow="2"
     inkscape:zoom="5.3650324"
     inkscape:cx="8.7513001"
     inkscape:cy="90.583525"
     inkscape:document-units="mm"
     inkscape:current-layer="layer1"
     showgrid="false"
     inkscape:snap-bbox="true"
     inkscape:bbox-paths="true"
     inkscape:snap-bbox-edge-midpoints="true"
     inkscape:bbox-nodes="true"
     inkscape:snap-bbox-midpoints="true"
     inkscape:object-paths="true"
     inkscape:snap-intersection-paths="true"
     inkscape:snap-smooth-nodes="true"
     inkscape:snap-midpoints="true"
     inkscape:snap-object-midpoints="true"
     inkscape:snap-center="true"
     inkscape:snap-text-baseline="true"
     inkscape:snap-page="true"
     inkscape:snap-global="true"
     units="px"
     inkscape:window-width="1920"
     inkscape:window-height="1000"
     inkscape:window-x="-11"
     inkscape:window-y="-11"
     inkscape:window-maximized="1" />
  <metadata
     id="metadata6861">
    <rdf:RDF>
      <cc:Work
         rdf:about="">
        <dc:format>image/svg+xml</dc:format>
        <dc:type
           rdf:resource="http://purl.org/dc/dcmitype/StillImage" />
        <dc:title />
      </cc:Work>
    </rdf:RDF>
  </metadata>
  <g
     inkscape:label="Layer 1"
     inkscape:groupmode="layer"
     id="layer1"
     transform="translate(0,-246.99373)">
    <circle
       style="opacity:1;fill:#4dbbeb;fill-opacity:1;stroke:none;stroke-width:0.50421321;stroke-linecap:round;stroke-linejoin:round;stroke-miterlimit:4;stroke-dasharray:none;stroke-opacity:1;paint-order:stroke fill markers"
       id="path952"
       cx="13.229166"
       cy="272.59601"
       r="9.977149" />
    <polygon
       style="fill:#c0e3f0"
       points="371.84,326.66 306.23,300.69 205.76,300.68 140.16,326.65 245,499 267,499 "
       id="polygon961"
       transform="matrix(0.02944452,0,0,0.02944452,5.6913702,263.99986)" />
    <path
       id="path963"
       d="m 18.823626,276.0833 v 2.69771 h -5.300014 l 0.61333,-1.01584 2.503078,-4.14696 0.694596,0.27471 c 0.898647,0.35569 1.48901,1.22401 1.48901,2.19038 z"
       style="fill:#4dbbeb;stroke-width:0.02944452"
       inkscape:connector-curvature="0" />
    <path
       id="path965"
       d="m 17.056954,266.14931 v 0.88334 l -0.58889,0.29444 -0.58889,1.17778 H 10.57916 l -0.5888897,-1.17778 -0.5888912,-0.29444 v -0.88334 l 0.8833359,-0.29445 2.061116,-1.56056 h 1.766671 l 2.061117,1.56056 z"
       style="fill:#4dbbeb;stroke-width:0.02944452"
       inkscape:connector-curvature="0" />
    <path
       inkscape:connector-curvature="0"
       style="fill:#57555c;stroke-width:0.02944452"
       d="m 10.817367,269.55545 -0.238207,-0.0789 v -0.97167 h 5.300014 v 0.97167 l -0.235851,0.0774 c -0.50409,0.13963 -1.236139,0.51145 -2.417395,0.51145 -1.097102,0 -1.783573,-0.31512 -2.408561,-0.50998 z"
       id="path969" />
    <path
       inkscape:connector-curvature="0"
       style="fill:#febdad;stroke-width:0.02944452"
       d="m 14.708165,272.85353 c -0.266178,0.17961 -0.566807,0.31182 -0.890108,0.38514 -0.189328,0.043 -0.386606,0.0657 -0.58889,0.0657 -0.202284,0 -0.399562,-0.0227 -0.58889,-0.0657 -0.323301,-0.0733 -0.624224,-0.20582 -0.890402,-0.38543 -0.706375,-0.47583 -1.170715,-1.2832 -1.170715,-2.19892 0,-0.3922 0.0851,-0.76408 0.238207,-1.09887 0.641919,0.20014 1.309839,0.50998 2.408561,0.50998 1.181668,0 1.915307,-0.37238 2.417395,-0.51145 0.03124,0.095 0.235851,0.48975 0.235851,1.10034 0,0.91602 -0.464635,1.72339 -1.171009,2.19921 z"
       id="path971" />
    <circle
       style="fill:#c0e3f0;stroke-width:0.02944452"
       cx="13.229167"
       cy="266.44376"
       r="0.88333553"
       id="circle973" />
    <path
       id="path975"
       d="m 14.112502,277.75045 v -1.89417 c 0,-0.12749 -0.04122,-0.25145 -0.117777,-0.35333 l -0.765558,-1.02084 -0.765557,1.02084 c -0.07656,0.10188 -0.117779,0.22584 -0.117779,0.35333 v 1.89417 l -0.02444,0.0147 0.613329,1.01584 h 0.58889 l 0.61333,-1.01584 z"
       style="fill:#57555c;stroke-width:0.02944452"
       inkscape:connector-curvature="0" />
    <path
       id="path977"
       d="m 13.818057,273.89322 v -0.65455 c -0.189328,0.043 -0.386606,0.0657 -0.58889,0.0657 -0.202284,0 -0.399562,-0.0227 -0.58889,-0.0657 v 0.65455 c 0,0.16253 0.06596,0.30975 0.172545,0.41634 0.106589,0.10659 0.253811,0.17255 0.416345,0.17255 0.325362,0 0.58889,-0.26353 0.58889,-0.58889 z"
       style="fill:#57555c;stroke-width:0.02944452"
       inkscape:connector-curvature="0" />
    <path
       inkscape:connector-curvature="0"
       style="fill:#4dbbeb;stroke-width:0.02944452"
       d="m 12.321393,277.76517 0.613329,1.01584 H 7.6347086 v -2.698 c 0,-0.96608 0.5900679,-1.8344 1.4887148,-2.19009 l 0.6948908,-0.27501 z"
       id="path981" />
    <path
       inkscape:connector-curvature="0"
       d="m 15.879174,277.22045 c -0.162534,0 -0.294446,0.13191 -0.294446,0.29444 0,0.16254 0.131912,0.29445 0.294446,0.29445 0.162533,0 0.294445,-0.13191 0.294445,-0.29445 0,-0.16253 -0.131912,-0.29444 -0.294445,-0.29444 z"
       id="path983"
       style="stroke-width:0.02944452" />
    <path
       inkscape:connector-curvature="0"
       d="m 18.659619,274.59356 c -0.299892,-0.44114 -0.720624,-0.77808 -1.216706,-0.97444 l -2.159991,-0.85481 c 0.564835,-0.54949 0.890697,-1.30695 0.890697,-2.10999 0,-0.3175 -0.04964,-0.62673 -0.147605,-0.92282 0.08992,-0.0518 0.147605,-0.14822 0.147605,-0.25496 v -0.90215 l 0.513895,-1.02782 0.501116,-0.25054 c 0.09976,-0.0499 0.16277,-0.15185 0.16277,-0.26338 v -0.88334 c 0,-0.12673 -0.08109,-0.23924 -0.201342,-0.27934 l -0.837343,-0.27911 -2.022486,-1.53132 c -0.05114,-0.0387 -0.113538,-0.0597 -0.177727,-0.0597 h -1.766671 c -0.06419,0 -0.126582,0.021 -0.177727,0.0597 l -2.022485,1.5313 -0.8373435,0.2791 c -0.1202509,0.0401 -0.201341,0.15264 -0.201341,0.27937 v 0.88334 c 0,0.11153 0.063011,0.21347 0.1627691,0.26335 l 0.5011166,0.25054 0.5138948,1.02785 v 0.90215 c 0,0.10674 0.05762,0.20317 0.147576,0.25496 -0.09802,0.29601 -0.147576,0.60517 -0.147576,0.92282 0,0.80301 0.325833,1.56044 0.890461,2.10976 l -2.160138,0.85507 c -0.4959926,0.1963 -0.9166374,0.53327 -1.216471,0.97441 -0.2998336,0.4411 -0.458304,0.95615 -0.458304,1.48945 v 2.698 c 0,0.16262 0.1318523,0.29444 0.2944456,0.29444 0.3392005,0 10.6870644,0 11.1889174,0 0.162592,0 0.294444,-0.13182 0.294444,-0.29444 v -2.69771 c 0,-0.53342 -0.158529,-1.04855 -0.458451,-1.48974 z m -5.558712,3.893 -0.46063,-0.76291 v -1.86737 c 0,-0.0634 0.02085,-0.12605 0.05889,-0.17666 l 0.530001,-0.70673 0.530149,0.70693 c 0.03789,0.0504 0.05874,0.11307 0.05874,0.17646 v 1.86717 l -0.46063,0.76311 z m -0.755076,-5.02317 v 0.42983 c 0,0.23585 0.0919,0.45765 0.258818,0.62457 0.04402,0.044 0.09193,0.0826 0.142806,0.1159 l -0.519254,0.69239 c -0.114009,0.15175 -0.176815,0.34005 -0.176815,0.5302 v 0.8917 l -1.801239,-2.98441 1.468958,-0.5815 c 0.197749,0.11858 0.407483,0.21256 0.626726,0.28132 z m 0.883336,0.72427 c -0.07856,0 -0.152493,-0.0306 -0.208114,-0.0863 -0.05568,-0.0557 -0.08633,-0.12958 -0.08633,-0.20814 v -0.30932 c 0.09767,0.01 0.195953,0.0149 0.294445,0.0149 0.09849,0 0.196778,-0.005 0.294445,-0.0149 v 0.30932 c 0,0.16235 -0.132088,0.29444 -0.294446,0.29444 z m 1.001113,1.13862 -0.519724,-0.693 c 0.241739,-0.1578 0.401946,-0.43048 0.401946,-0.74006 v -0.4298 c 0.219333,-0.0688 0.428948,-0.16266 0.626433,-0.28105 l 1.469251,0.58144 -1.801238,2.98405 v -0.89158 c 0,-0.19015 -0.0628,-0.37845 -0.176668,-0.53 z m -3.171881,-6.00123 c -0.02532,-0.0295 -0.05689,-0.0546 -0.09408,-0.0727 -0.02939,-0.0143 -0.05998,-0.0231 -0.09072,-0.0272 v -0.42582 h 4.711123 v 0.46398 l -0.770004,0.25325 c -1.909859,0.62735 -3.359531,-0.084 -3.756325,-0.1915 z m -0.936453,-2.26131 -0.4261213,-0.21306 v -0.48913 l 0.6819943,-0.22735 c 0.03045,-0.0102 0.05904,-0.0252 0.08462,-0.0446 l 1.982264,-1.50088 h 1.568893 l 1.982263,1.50088 c 0.02559,0.0194 0.05418,0.0344 0.08462,0.0446 l 0.682024,0.22735 v 0.48913 l -0.426121,0.21306 c -0.057,0.0285 -0.103203,0.0747 -0.131705,0.13167 l -0.507477,1.01502 h -4.936079 l -0.507506,-1.01502 c -0.02847,-0.057 -0.0747,-0.1032 -0.131675,-0.13167 z m 0.751659,3.59058 c 0,-0.25199 0.03913,-0.49711 0.116042,-0.73175 0.26182,0.0592 1.892398,0.84865 4.008959,0.15346 l 0.469935,-0.1545 c 0.07709,0.23497 0.116187,0.48051 0.116187,0.73279 0,0.78149 -0.385811,1.50921 -1.032589,1.94911 -0.0046,0.003 -0.009,0.006 -0.01337,0.009 -0.239855,0.16103 -0.504179,0.27516 -0.785904,0.33905 -0.341085,0.0775 -0.706256,0.0775 -1.047459,0 -0.283316,-0.0643 -0.549376,-0.17943 -0.791027,-0.34247 -0.651696,-0.43902 -1.040776,-1.16977 -1.040776,-1.95476 z m -2.9444518,5.42869 c 0,-0.85092 0.5113048,-1.60311 1.3025968,-1.91631 l 0.4631914,-0.18335 2.3743766,3.93399 0.343677,0.56922 H 7.9291532 Z m 10.6000268,2.40355 h -4.483899 l 2.71814,-4.50301 0.46284,0.18318 c 0.791498,0.31326 1.302919,1.06557 1.302919,1.91657 z"
       id="path985"
       style="stroke-width:0.02944452" />
    <path
       inkscape:connector-curvature="0"
       d="m 13.229167,267.62154 c 0.649428,0 1.177781,-0.52836 1.177781,-1.17779 0,-0.64942 -0.528353,-1.17778 -1.177781,-1.17778 -0.649429,0 -1.177781,0.52836 -1.177781,1.17778 0,0.64943 0.528352,1.17779 1.177781,1.17779 z m 0,-1.76668 c 0.324714,0 0.58889,0.26418 0.58889,0.58889 0,0.32472 -0.264176,0.5889 -0.58889,0.5889 -0.324714,0 -0.58889,-0.26418 -0.58889,-0.5889 0,-0.32471 0.264176,-0.58889 0.58889,-0.58889 z"
       id="path987"
       style="stroke-width:0.02944452" />
    <path
       inkscape:connector-curvature="0"
       d="m 17.645845,277.22045 h -0.588891 c -0.162592,0 -0.294445,0.13182 -0.294445,0.29444 0,0.16263 0.131853,0.29445 0.294445,0.29445 h 0.588891 c 0.162592,0 0.294445,-0.13182 0.294445,-0.29445 0,-0.16262 -0.131853,-0.29444 -0.294445,-0.29444 z"
       id="path989"
       style="stroke-width:0.02944452" />
    <path
       inkscape:connector-curvature="0"
       d="m 13.229168,259.37035 c -7.2945629,0 -13.2291675484435,5.9346 -13.2291675484435,13.22916 0,2.4646 0.6826985184435,4.86981 1.9747479484435,6.95649 l 10.5013866,16.92282 c 0.201156,0.32419 0.555551,0.52116 0.936698,0.52116 0.0029,0 0.0058,0 0.0087,0 0.384454,-0.003 0.739583,-0.20609 0.937065,-0.53593 l 10.233716,-17.0868 c 1.220758,-2.04258 1.865975,-4.38627 1.865975,-6.77774 1e-6,-7.29456 -5.934604,-13.22916 -13.229166,-13.22916 z m 9.471055,18.87493 -9.304074,15.53457 -9.5474164,-15.38552 c -1.0754572,-1.73684 -1.6585697,-3.74062 -1.6585697,-5.79482 0,-6.0788 4.9602026,-11.039 11.0390051,-11.039 6.078802,0 11.031655,4.9602 11.031655,11.039 0,1.99327 -0.544674,3.94582 -1.5606,5.64577 z"
       id="path889-6"
       style="fill:#4dbbeb;fill-opacity:1;stroke-width:0.07349537" />
  </g>
</svg>
