<?xml version="1.0" standalone="no"?>
<!DOCTYPE svg PUBLIC "-//W3C//DTD SVG 20010904//EN"
 "http://www.w3.org/TR/2001/REC-SVG-20010904/DTD/svg10.dtd">
<svg version="1.0" xmlns="http://www.w3.org/2000/svg"
 width="700.000000pt" height="700.000000pt" viewBox="0 0 700.000000 700.000000"
 preserveAspectRatio="xMidYMid meet">
<metadata>
Created by potrace 1.11, written by Peter Selinger 2001-2013
</metadata>
<g transform="translate(0.000000,700.000000) scale(0.100000,-0.100000)"
fill="#000000" stroke="none">
<path d="M3616 4534 c-12 -11 -15 -32 -13 -80 3 -70 17 -90 49 -73 15 8 18 22
18 79 0 58 -3 71 -19 80 -15 7 -23 6 -35 -6z"/>
<path d="M4130 4347 c-32 -25 -81 -97 -78 -114 2 -11 14 -19 28 -21 19 -2 33
8 63 44 20 26 37 55 37 65 0 25 -31 41 -50 26z"/>
<path d="M3087 4343 c-15 -14 -5 -40 34 -85 43 -51 72 -60 88 -29 9 15 3 28
-30 70 -38 48 -72 64 -92 44z"/>
<path d="M3534 4245 c-73 -16 -133 -45 -194 -94 -57 -45 -72 -63 -114 -131
-63 -102 -69 -142 -70 -457 l-1 -283 -47 0 c-55 0 -49 16 -49 -145 0 -52 0
-135 0 -184 l1 -90 568 2 567 2 1 208 2 207 -39 0 -39 0 0 158 c0 336 -5 422
-30 492 -52 146 -157 252 -297 301 -71 24 -183 30 -259 14z"/>
<path d="M2884 3898 c-25 -39 -3 -56 84 -64 44 -5 61 -3 70 9 10 12 9 18 -5
35 -23 26 -136 42 -149 20z"/>
<path d="M4264 3895 c-32 -9 -39 -15 -39 -35 0 -28 33 -41 80 -29 17 4 42 10
56 13 27 6 34 31 16 54 -11 14 -56 13 -113 -3z"/>
<path d="M2873 3449 c-25 -9 -31 -43 -11 -55 18 -12 128 -6 144 7 48 40 -56
78 -133 48z"/>
<path d="M4255 3440 c-12 -14 -13 -19 -1 -36 12 -17 25 -19 81 -18 74 1 94 15
71 49 -18 26 -128 30 -151 5z"/>
<path d="M2622 2553 l3 -108 83 -2 83 -1 -3 26 c-3 24 -7 26 -53 26 -39 1 -50
5 -53 19 -3 14 4 17 47 17 47 0 51 2 51 24 0 21 -4 24 -37 24 -59 0 -63 1 -63
17 0 12 13 15 55 15 52 0 55 1 55 25 0 25 -1 25 -85 25 l-86 0 3 -107z"/>
<path d="M2820 2552 l0 -109 80 0 80 -1 0 27 c0 26 -2 27 -50 26 -56 -1 -52
-9 -51 103 l1 62 -30 0 -30 0 0 -108z"/>
<path d="M3007 2653 c-3 -7 -2 -183 2 -205 0 -4 38 -6 84 -5 58 1 82 6 81 15
-1 6 -2 18 -2 26 -2 10 -17 13 -57 11 -47 -1 -55 1 -55 17 0 15 8 18 54 18 49
0 53 2 52 23 -1 18 -7 22 -36 24 -19 0 -43 1 -52 2 -10 1 -18 8 -18 16 0 12
13 15 55 15 52 0 55 1 55 25 0 25 -1 25 -79 25 -44 0 -82 -3 -84 -7z"/>
<path d="M3231 2629 c-73 -73 -23 -189 82 -189 63 0 135 82 81 93 -15 3 -30
-4 -43 -19 -25 -29 -54 -31 -81 -4 -24 24 -25 48 -4 78 19 28 57 28 83 1 15
-16 27 -20 46 -15 26 7 26 7 9 35 -36 60 -123 70 -173 20z"/>
<path d="M3430 2635 c0 -22 4 -25 35 -25 l35 0 0 -85 c0 -74 2 -85 18 -85 32
0 38 15 38 90 l-1 75 33 3 c26 3 32 7 32 28 0 24 -1 24 -95 24 -95 0 -95 0
-95 -25z"/>
<path d="M3646 2651 c-10 -16 -3 -196 8 -203 6 -4 19 -8 29 -8 13 0 17 9 17
43 l1 42 40 -42 c25 -28 48 -43 64 -43 36 0 38 14 5 45 l-29 28 24 23 c34 31
33 76 -1 103 -21 16 -41 21 -90 21 -34 0 -65 -4 -68 -9z m121 -56 c7 -21 0
-27 -37 -30 -26 -2 -30 1 -30 21 0 20 5 24 30 24 18 0 33 -6 37 -15z"/>
<path d="M3891 2634 c-57 -47 -50 -137 13 -175 85 -52 187 15 171 112 -14 83
-118 119 -184 63z m113 -40 c25 -25 20 -71 -10 -91 -24 -15 -29 -15 -53 -2
-32 18 -40 68 -16 93 21 20 59 21 79 0z"/>
<path d="M4107 2653 c-4 -7 -2 -184 2 -204 0 -4 12 -6 26 -6 24 0 25 2 25 61
1 50 3 58 13 45 41 -54 92 -101 113 -105 l24 -4 0 110 0 111 -27 -3 c-26 -3
-28 -6 -29 -51 0 -26 -3 -50 -6 -52 -3 -3 -25 19 -49 49 -41 51 -79 71 -92 49z"/>
<path d="M4342 2553 l3 -108 28 -2 27 -2 0 110 0 109 -30 0 -31 0 3 -107z"/>
<path d="M4462 2631 c-75 -75 -25 -191 81 -191 65 0 129 79 76 93 -15 4 -28
-2 -44 -21 -20 -23 -27 -25 -51 -17 -39 14 -53 55 -30 89 20 32 58 34 85 5 15
-16 27 -20 46 -15 26 7 26 7 9 35 -35 59 -123 70 -172 22z"/>
<path d="M2650 2285 l0 -65 44 0 c25 0 48 5 51 10 4 6 -10 10 -34 10 -34 0
-41 3 -41 20 0 16 7 20 35 20 19 0 35 5 35 10 0 6 -16 10 -35 10 -24 0 -35 5
-35 15 0 10 10 15 34 15 19 0 38 5 41 10 4 6 -13 10 -44 10 l-51 0 0 -65z"/>
<path d="M2770 2284 c0 -41 4 -63 10 -59 6 3 10 21 10 38 l0 32 24 -39 23 -39
15 24 c9 13 20 33 26 44 10 17 12 13 12 -25 1 -29 4 -39 9 -27 10 27 6 110 -6
114 -5 2 -18 -15 -28 -37 -10 -23 -22 -43 -27 -46 -4 -3 -18 15 -30 40 -12 26
-26 46 -30 46 -4 0 -8 -30 -8 -66z"/>
<path d="M2933 2288 l2 -63 39 -3 c21 -2 43 1 49 7 8 8 -1 11 -31 11 -35 0
-42 3 -42 20 0 16 7 20 35 20 19 0 35 5 35 10 0 6 -16 10 -35 10 -24 0 -35 5
-35 15 0 10 10 15 34 15 19 0 38 5 41 10 4 6 -13 10 -44 10 l-51 0 3 -62z"/>
<path d="M3050 2285 c0 -37 4 -65 10 -65 6 0 10 14 10 30 0 38 10 38 44 -1 15
-17 30 -28 34 -25 3 3 -5 17 -17 30 -22 23 -22 23 -2 29 14 3 21 13 21 30 0
28 -16 37 -66 37 l-34 0 0 -65z m80 30 c0 -8 -3 -15 -7 -15 -5 0 -18 -3 -30
-6 -19 -5 -23 -2 -23 15 0 17 6 21 30 21 20 0 30 -5 30 -15z"/>
<path d="M3187 2332 c-37 -40 -6 -112 47 -112 22 0 66 40 66 60 0 11 -57 18
-72 8 -14 -8 -5 -11 25 -9 27 3 20 -28 -8 -35 -31 -8 -55 10 -55 40 0 41 50
62 78 34 17 -17 28 -2 12 17 -17 21 -73 19 -93 -3z"/>
<path d="M3320 2286 l0 -63 45 -1 c25 -1 45 3 45 8 0 6 -16 10 -35 10 -28 0
-35 4 -35 20 0 16 7 20 35 20 19 0 35 5 35 10 0 6 -16 10 -35 10 -24 0 -35 5
-35 15 0 10 10 15 34 15 19 0 38 5 41 10 4 6 -13 10 -44 10 l-51 0 0 -64z"/>
<path d="M3439 2338 c-4 -63 -1 -103 6 -103 9 0 11 9 14 59 1 15 10 8 37 -27
20 -26 41 -47 45 -47 5 0 9 29 9 65 0 74 -17 89 -22 19 l-3 -46 -34 46 c-35
46 -50 56 -52 34z"/>
<path d="M3586 2328 c-22 -32 -20 -61 7 -86 29 -28 61 -28 88 -1 25 25 17 39
-10 15 -27 -25 -64 -17 -75 16 -17 47 42 82 74 43 7 -8 17 -12 22 -9 5 3 2 14
-8 25 -24 27 -79 25 -98 -3z"/>
<path d="M3710 2344 c0 -3 9 -19 21 -35 11 -16 23 -41 25 -56 7 -40 11 -39 24
3 5 22 17 48 25 58 16 22 19 36 7 36 -4 0 -16 -14 -26 -31 l-19 -31 -19 31
c-18 28 -38 41 -38 25z"/>
<path d="M3891 2336 c-17 -21 -3 -44 35 -56 19 -7 33 -17 31 -23 -6 -19 -38
-20 -51 -1 -8 11 -15 13 -20 6 -9 -15 21 -42 48 -42 54 0 61 59 8 75 -17 5
-32 15 -32 22 0 16 32 17 48 1 17 -17 28 -2 12 17 -16 19 -64 20 -79 1z"/>
<path d="M3996 2338 c4 -7 16 -25 26 -40 10 -14 18 -35 18 -46 0 -12 5 -24 10
-27 6 -4 10 5 10 20 0 15 8 39 18 53 30 44 34 52 22 52 -5 0 -19 -14 -29 -31
l-19 -30 -21 30 c-21 30 -50 45 -35 19z"/>
<path d="M4130 2335 c-18 -22 -6 -42 35 -55 37 -12 42 -32 11 -38 -10 -2 -23
4 -30 14 -10 13 -15 14 -21 4 -5 -8 -1 -18 10 -27 24 -17 46 -17 69 0 27 20
16 50 -22 62 -30 9 -40 24 -25 38 3 4 16 1 29 -7 25 -17 40 -10 23 11 -15 18
-64 17 -79 -2z"/>
<path d="M4230 2340 c0 -5 11 -10 24 -10 21 0 24 -4 24 -37 0 -65 2 -74 13
-68 6 4 9 28 7 54 -2 41 0 46 20 49 44 7 21 22 -33 22 -30 0 -55 -4 -55 -10z"/>
<path d="M4359 2308 c-7 -80 -3 -88 47 -88 24 0 44 5 44 10 0 6 -18 10 -39 10
-34 0 -38 3 -34 20 4 15 14 20 40 20 20 0 32 4 28 10 -3 6 -19 10 -36 10 -19
0 -29 5 -29 15 0 10 11 15 35 15 19 0 35 5 35 10 0 6 -20 10 -44 10 l-44 0 -3
-42z"/>
<path d="M4472 2290 c0 -33 4 -63 9 -66 5 -3 9 14 9 38 l0 43 26 -42 c14 -24
27 -43 29 -43 3 0 13 17 24 38 l20 37 1 -32 c0 -17 5 -35 10 -38 6 -4 10 18
10 59 0 36 -4 66 -8 66 -5 0 -20 -21 -34 -46 l-26 -47 -27 47 c-15 25 -30 46
-35 46 -4 0 -8 -27 -8 -60z"/>
</g>
</svg>
