<?xml version="1.0" encoding="UTF-8" standalone="no"?>
<!-- Created with Inkscape (http://www.inkscape.org/) -->

<svg
   xmlns:dc="http://purl.org/dc/elements/1.1/"
   xmlns:cc="http://creativecommons.org/ns#"
   xmlns:rdf="http://www.w3.org/1999/02/22-rdf-syntax-ns#"
   xmlns:svg="http://www.w3.org/2000/svg"
   xmlns="http://www.w3.org/2000/svg"
   xmlns:sodipodi="http://sodipodi.sourceforge.net/DTD/sodipodi-0.dtd"
   xmlns:inkscape="http://www.inkscape.org/namespaces/inkscape"
   width="133"
   height="189"
   viewBox="0 0 35.189583 50.006251"
   version="1.1"
   id="svg6864"
   inkscape:version="0.92.2 (5c3e80d, 2017-08-06)"
   sodipodi:docname="Ambulance_pin.svg">
  <defs
     id="defs6858" />
  <sodipodi:namedview
     id="base"
     pagecolor="#ffffff"
     bordercolor="#666666"
     borderopacity="1.0"
     inkscape:pageopacity="0.0"
     inkscape:pageshadow="2"
     inkscape:zoom="3.7936508"
     inkscape:cx="-57.368116"
     inkscape:cy="86.855649"
     inkscape:document-units="mm"
     inkscape:current-layer="g969"
     showgrid="false"
     inkscape:snap-bbox="true"
     inkscape:bbox-paths="true"
     inkscape:snap-bbox-edge-midpoints="true"
     inkscape:bbox-nodes="true"
     inkscape:snap-bbox-midpoints="true"
     inkscape:object-paths="true"
     inkscape:snap-intersection-paths="true"
     inkscape:snap-smooth-nodes="true"
     inkscape:snap-midpoints="true"
     inkscape:snap-object-midpoints="true"
     inkscape:snap-center="true"
     inkscape:snap-text-baseline="true"
     inkscape:snap-page="true"
     inkscape:snap-global="true"
     units="px"
     inkscape:window-width="1920"
     inkscape:window-height="1000"
     inkscape:window-x="-11"
     inkscape:window-y="-11"
     inkscape:window-maximized="1" />
  <metadata
     id="metadata6861">
    <rdf:RDF>
      <cc:Work
         rdf:about="">
        <dc:format>image/svg+xml</dc:format>
        <dc:type
           rdf:resource="http://purl.org/dc/dcmitype/StillImage" />
        <dc:title></dc:title>
      </cc:Work>
    </rdf:RDF>
  </metadata>
  <g
     inkscape:label="Layer 1"
     inkscape:groupmode="layer"
     id="layer1"
     transform="translate(0,-246.99373)">
    <g
       id="g969"
       inkscape:export-xdpi="96"
       inkscape:export-ydpi="96"
       transform="scale(0.99999169,1)">
      <circle
         r="9.977149"
         cy="272.59601"
         cx="13.229166"
         id="path952"
         style="opacity:1;fill:#4dbbeb;fill-opacity:1;stroke:none;stroke-width:0.50421321;stroke-linecap:round;stroke-linejoin:round;stroke-miterlimit:4;stroke-dasharray:none;stroke-opacity:1;paint-order:stroke fill markers" />
      <path
         style="fill:#4dbbeb;fill-opacity:1;stroke-width:0.07349537"
         id="path889-6"
         d="m 13.229168,259.37035 c -7.2945629,0 -13.2291675484435,5.9346 -13.2291675484435,13.22916 0,2.4646 0.6826985184435,4.86981 1.9747479484435,6.95649 l 10.5013866,16.92282 c 0.201156,0.32419 0.555551,0.52116 0.936698,0.52116 0.0029,0 0.0058,0 0.0087,0 0.384454,-0.003 0.739583,-0.20609 0.937065,-0.53593 l 10.233716,-17.0868 c 1.220758,-2.04258 1.865975,-4.38627 1.865975,-6.77774 1e-6,-7.29456 -5.934604,-13.22916 -13.229166,-13.22916 z m 9.471055,18.87493 -9.304074,15.53457 -9.5474164,-15.38552 c -1.0754572,-1.73684 -1.6585697,-3.74062 -1.6585697,-5.79482 0,-6.0788 4.9602026,-11.039 11.0390051,-11.039 6.078802,0 11.031655,4.9602 11.031655,11.039 0,1.99327 -0.544674,3.94582 -1.5606,5.64577 z"
         inkscape:connector-curvature="0" />
      <g
         transform="matrix(0.09814313,0,0,0.09814231,37.317765,222.32262)"
         id="g1049">
        <path
           inkscape:connector-curvature="0"
           style="fill:#e8e9ea;stroke-width:0.33250093"
           d="m -168.81872,549.35774 h -147.80597 c -4.81794,0 -8.72349,-3.90556 -8.72349,-8.72349 v -61.16521 c 0,-8.30987 6.73647,-15.04633 15.04633,-15.04633 h 98.16757 c 3.17173,0 6.23074,1.17539 8.58651,3.29874 l 36.89064,33.25375 c 4.17721,3.76524 6.56191,9.12515 6.56191,14.74907 v 24.90998 c 0,4.81793 -3.90556,8.72349 -8.7235,8.72349 z"
           id="path1060" />
        <path
           inkscape:connector-curvature="0"
           style="fill:#76b7eb;stroke-width:0.33250093"
           d="m -244.85869,517.05694 v -52.63423 h -65.44316 c -8.30986,0 -15.04633,6.73646 -15.04633,15.04633 v 43.5646 h 74.51279 c 3.30074,3.3e-4 5.9767,-2.67563 5.9767,-5.9767 z"
           id="path1062" />
        <rect
           x="-325.34818"
           y="510.56354"
           style="opacity:0.1;stroke-width:0.33250093;enable-background:new"
           width="80.488503"
           height="4.987514"
           id="rect1064" />
        <path
           inkscape:connector-curvature="0"
           style="fill:#ffffff;stroke-width:0.33250093"
           d="m -279.11459,482.35249 v -7.94378 c 0,-0.72918 -0.59086,-1.32003 -1.32003,-1.32003 h -8.04054 c -0.72917,0 -1.32003,0.59085 -1.32003,1.32003 v 7.94378 c 0,0.57855 -0.46916,1.04771 -1.04771,1.04771 h -7.94411 c -0.72918,0 -1.32003,0.59085 -1.32003,1.32002 v 8.04054 c 0,0.72918 0.59119,1.32003 1.32003,1.32003 h 7.94378 c 0.57855,0 1.04771,0.46916 1.04771,1.04771 v 7.94378 c 0,0.72918 0.59119,1.32003 1.32003,1.32003 h 8.04054 c 0.72917,0 1.32002,-0.59085 1.32002,-1.32003 v -7.94345 c 0,-0.57855 0.46916,-1.04771 1.04771,-1.04771 h 7.94378 c 0.72918,0 1.32003,-0.59085 1.32003,-1.32003 v -8.04053 c 0,-0.72918 -0.59085,-1.32003 -1.32003,-1.32003 h -7.94378 c -0.57821,-3.3e-4 -1.04737,-0.46949 -1.04737,-1.04804 z"
           id="path1066" />
        <path
           inkscape:connector-curvature="0"
           style="fill:#bdc0c3;stroke-width:0.33250093"
           d="m -325.34818,536.31107 v 4.32318 c 0,4.81793 3.90555,8.72349 8.72349,8.72349 h 147.80631 c 4.81794,0 8.72349,-3.90556 8.72349,-8.72349 v -4.32318 z"
           id="path1068" />
        <path
           inkscape:connector-curvature="0"
           style="fill:#f28b74;stroke-width:0.33250093"
           d="m -228.52325,447.84255 h -8.96123 c -4.0728,0 -7.37421,3.30173 -7.37421,7.3742 v 9.20596 h 23.70965 v -9.20596 c 0,-4.07247 -3.3014,-7.3742 -7.37421,-7.3742 z"
           id="path1070" />
        <path
           inkscape:connector-curvature="0"
           style="opacity:0.1;stroke-width:0.33250093;enable-background:new"
           d="m -237.30127,447.84255 h -0.18288 c -4.0728,0 -7.3742,3.30173 -7.3742,7.3742 v 9.20596 h 12.63171 c -4.46516,-4.78902 -5.04803,-12.17187 -5.07463,-16.58016 z"
           id="path1072" />
        <path
           inkscape:connector-curvature="0"
           style="fill:#76b7eb;stroke-width:0.33250093"
           d="m -190.93834,494.02593 -18.68921,-16.84649 c -1.37622,-1.24056 -3.16342,-1.92718 -5.01611,-1.92718 h -15.01076 c -2.43955,0 -4.41727,1.97772 -4.41727,4.41728 v 17.63751 c 0,2.43956 1.97772,4.41727 4.41727,4.41727 h 35.75848 c 4.04687,0 5.96341,-4.98884 2.9576,-7.69839 z"
           id="path1074" />
        <path
           inkscape:connector-curvature="0"
           style="opacity:0.1;stroke-width:0.33250093;enable-background:new"
           d="m -207.17203,479.39256 -2.45552,-2.21346 c -1.37622,-1.24056 -3.16342,-1.92717 -5.01611,-1.92717 h -15.01076 c -2.34612,0 -4.25966,1.83042 -4.40331,4.1403 h 26.8857 z"
           id="path1076" />
        <g
           transform="matrix(0.33250093,0,0,0.33250093,-327.84194,415.01606)"
           id="g1082">
          <path
             inkscape:connector-curvature="0"
             style="fill:#38648c"
             d="M 468.518,364.796 H 504.5 v -39.931 h -35.982 c -4.367,0 -7.907,3.54 -7.907,7.907 v 24.118 c 0,4.366 3.54,7.906 7.907,7.906 z"
             id="path1078" />
          <path
             inkscape:connector-curvature="0"
             style="fill:#38648c"
             d="M 43.482,364.796 H 7.5 v -39.931 h 35.982 c 4.367,0 7.907,3.54 7.907,7.907 v 24.118 c 0,4.366 -3.54,7.906 -7.907,7.906 z"
             id="path1080" />
        </g>
        <path
           inkscape:connector-curvature="0"
           style="opacity:0.15;stroke-width:0.33250093;enable-background:new"
           d="m -284.40468,464.42271 h -25.89717 c -8.30986,0 -15.04633,6.73646 -15.04633,15.04633 v 61.16521 c 0,4.81793 3.90555,8.72349 8.72349,8.72349 h 73.62701 c -43.07217,-20.32512 -44.09162,-62.91283 -41.407,-84.93503 z"
           id="path1084" />
        <circle
           style="fill:#495059;stroke-width:0.33250093"
           cx="-287.08731"
           cy="549.35638"
           r="16.438845"
           id="circle1086" />
        <circle
           style="fill:#bdc0c3;stroke-width:0.33250093"
           cx="-287.08731"
           cy="549.35638"
           r="6.5509334"
           id="circle1088" />
        <circle
           style="fill:#495059;stroke-width:0.33250093"
           cx="-199.81578"
           cy="549.35638"
           r="16.438845"
           id="circle1090" />
        <circle
           style="fill:#bdc0c3;stroke-width:0.33250093"
           cx="-199.81578"
           cy="549.35638"
           r="6.5509334"
           id="circle1092" />
        <path
           style="stroke-width:0.33250093"
           inkscape:connector-curvature="0"
           d="m -233.0037,441.75878 c 1.37722,0 2.49376,-1.11621 2.49376,-2.49376 v -4.78901 c 0,-1.37755 -1.11654,-2.49376 -2.49376,-2.49376 -1.37722,0 -2.49375,1.11621 -2.49375,2.49376 v 4.78868 c 0,1.37755 1.11653,2.49409 2.49375,2.49409 z m -23.18296,3.85767 4.14861,3.42709 c 0.46484,0.38404 1.02743,0.57124 1.5867,0.57124 0.7182,0 1.43108,-0.30856 1.92418,-0.90574 0.87714,-1.06167 0.72751,-2.63374 -0.33449,-3.51087 l -4.14862,-3.42709 c -1.06201,-0.87814 -2.63374,-0.72751 -3.51088,0.3345 -0.87713,1.062 -0.72751,2.63407 0.3345,3.51087 z m 40.63062,3.99833 c 0.55926,0 1.12185,-0.1872 1.58669,-0.57124 l 4.14862,-3.42709 c 1.06167,-0.87713 1.21163,-2.44887 0.33449,-3.51087 -0.8768,-1.06168 -2.44887,-1.2123 -3.51088,-0.3345 l -4.14861,3.42709 c -1.06168,0.87713 -1.21163,2.44887 -0.3345,3.51087 0.4931,0.59718 1.20565,0.90574 1.92419,0.90574 z m -9.26581,60.95041 c -1.37722,0 -2.49375,1.11621 -2.49375,2.49376 0,1.37755 1.11653,2.49375 2.49375,2.49375 h 7.34595 c 1.37722,0 2.49375,-1.1162 2.49375,-2.49375 0,-1.37755 -1.11653,-2.49376 -2.49375,-2.49376 z m 59.83454,-11.44235 -36.89098,-33.25342 c -2.81861,-2.54131 -6.46115,-3.9408 -10.25599,-3.9408 h -6.521 v -6.7122 c 0,-5.44105 -4.42692,-9.86796 -9.86797,-9.86796 h -8.96123 c -5.44138,0 -9.86796,4.42658 -9.86796,9.86796 v 6.7122 h -62.94941 c -9.67146,3.3e-4 -17.54009,7.86896 -17.54009,17.54075 v 2.45253 c 0,1.37755 1.11654,2.49375 2.49376,2.49375 1.37722,0 2.49375,-1.1162 2.49375,-2.49375 v -2.45253 c 0,-6.92167 5.63091,-12.55291 12.55258,-12.55291 h 62.94941 v 50.14048 c 0,1.92052 -1.56242,3.48361 -3.48328,3.48361 h -72.01871 v -27.14471 c 0,-1.37722 -1.11653,-2.49376 -2.49375,-2.49376 -1.37722,0 -2.49376,1.11654 -2.49376,2.49376 v 47.23841 c 0,6.18518 5.03207,11.21692 11.21725,11.21692 h 10.77336 c 1.22527,9.26447 9.16971,16.43884 18.76336,16.43884 9.59365,0 17.5381,-7.17437 18.76336,-16.43884 h 49.7458 c 1.22527,9.26447 9.16971,16.43884 18.76336,16.43884 9.59365,0 17.53809,-7.17437 18.76336,-16.43884 h 6.85052 c 1.37722,0 2.49375,-1.11621 2.49375,-2.49376 0,-1.37755 -1.11653,-2.49376 -2.49375,-2.49376 h -6.85052 c -1.22527,-9.26447 -9.16971,-16.43884 -18.76336,-16.43884 -9.59365,0 -17.53809,7.17437 -18.76336,16.43884 h -49.74613 c -1.22526,-9.26447 -9.16971,-16.43884 -18.76336,-16.43884 -9.59365,0 -17.53809,7.17437 -18.76336,16.43884 h -10.77303 c -3.43507,3.3e-4 -6.22974,-2.794 -6.22974,-6.22907 v -1.82942 h 9.4703 c 2.82459,0 5.12284,-2.29792 5.12284,-5.12251 v -8.01926 c 0,-0.0456 -0.006,-0.0898 -0.007,-0.13499 h 57.43289 c 4.67064,0 8.47046,-3.80016 8.47046,-8.47113 v -50.14081 h 30.23065 c 2.55926,0 5.01578,0.94397 6.91669,2.65768 l 36.89098,33.25342 c 3.6462,3.28677 5.73763,7.98767 5.73763,12.89671 v 4.81595 h -9.47029 c -2.82459,0 -5.12284,2.29791 -5.12284,5.12251 v 8.01925 c 0,2.8246 2.29825,5.12251 5.12284,5.12251 h 9.47029 v 1.82942 c 0,2.00166 -0.97256,3.89525 -2.60182,5.06499 -1.11886,0.80332 -1.37422,2.36142 -0.5709,3.48029 0.48711,0.6783 1.25186,1.0394 2.02759,1.0394 0.50374,0 1.01213,-0.15229 1.45236,-0.4685 2.93067,-2.1044 4.68029,-5.5122 4.68029,-9.11618 v -24.90997 c 0,-6.31885 -2.69193,-12.3697 -7.38585,-16.6011 z m -34.82814,36.28948 c 7.68942,0 13.94509,6.25567 13.94509,13.94509 0,7.68941 -6.25567,13.94509 -13.94509,13.94509 -7.68942,0 -13.94509,-6.25568 -13.94509,-13.94509 0,-7.68942 6.25567,-13.94509 13.94509,-13.94509 z m -87.27285,0 c 7.68942,0 13.94509,6.25567 13.94509,13.94509 0,7.68941 -6.25567,13.94509 -13.94509,13.94509 -7.68942,0 -13.94509,-6.25568 -13.94509,-13.94509 0,-7.68942 6.25567,-13.94509 13.94509,-13.94509 z m -26.16051,-1.72967 c 0,0.0745 -0.0608,0.13499 -0.13532,0.13499 h -9.4703 v -8.28958 h 9.4703 c 0.0745,0 0.13532,0.0609 0.13532,0.135 0,-3.3e-4 0,8.01959 0,8.01959 z m 89.60601,-71.7537 h -18.72213 v -6.7122 c 0,-2.69126 2.18952,-4.88045 4.88045,-4.88045 h 8.96123 c 2.69127,0 4.88045,2.18919 4.88045,4.88045 z m 61.05382,71.88836 h -9.47029 c -0.0745,0 -0.13533,-0.0609 -0.13533,-0.13499 v -8.01926 c 0,-0.0745 0.0609,-0.135 0.13533,-0.135 h 9.47029 z m -24.85544,-34.0318 c 1.03441,-2.69293 0.31854,-5.68078 -1.8241,-7.61194 v 3.3e-4 l -18.68888,-16.84649 c -1.8374,-1.65652 -4.21179,-2.56891 -6.68593,-2.56891 h -15.01109 c -3.81079,0 -6.91103,3.10024 -6.91103,6.91104 v 17.63718 c 0,3.81112 3.10024,6.91136 6.91103,6.91136 h 35.75848 c 2.88445,0 5.41711,-1.73965 6.45152,-4.43257 z m -44.13351,-2.47879 v -17.63718 c 0,-1.06035 0.86284,-1.92352 1.92351,-1.92352 h 15.01109 c 1.23824,0 2.42659,0.45652 3.34629,1.28545 l 18.68888,16.84682 c 0.91072,0.82095 0.61878,1.82909 0.50773,2.11836 -0.11106,0.28961 -0.56924,1.23392 -1.79551,1.23392 h -35.75848 c -1.06067,0 -1.92351,-0.86284 -1.92351,-1.92385 z"
           id="path1094" />
      </g>
    </g>
  </g>
</svg>
